#!OML:ASF H:\IndianDance\Patient Classification 1\Patient 1\Session 1\dancer.ASF
:FULLY-SPECIFIED
:DEGREES
1663
root 20.4675 8.72294 8.35835 -176.496 -3.89081 -168.059
lowerback 26.3855 9.25808 4.17419
upperback -2.33614 13.9588 2.99051
thorax -16.4248 5.77595 -4.25602
lowerneck -13.8924 11.1412 12.3184
upperneck 8.47044 12.1304 1.26147
head 5.45771 6.3165 -0.384876
rclavicle -3.12092e-014 -3.02153e-014
rhumerus 5.52668 61.9187 -35.4339
rradius 103.367
rwrist 10.7023
rhand -50.5435 67.563
rfingers 7.12502
rthumb -23.1106 398.929
lclavicle -3.12092e-014 -3.02153e-014
lhumerus 41.0943 -54.0906 -13.3897
lradius 101.337
lwrist 1.07334
lhand -56.147 -32.6822
lfingers 7.12502
lthumb -28.4767 -364.83
rfemur -441.523 -57.6245 389.554
rtibia 133.547
rfoot -24.8532 16.7117
rtoes -19.4161
lfemur -94.2779 50.7634 -24.4244
ltibia 137.552
lfoot -28.0652 -16.2977
ltoes -5.99498
1664
root 20.4205 8.93801 8.35076 -176.209 -3.97765 -167.826
lowerback 25.7398 9.39826 4.3567
upperback -2.08211 14.1791 3.08589
thorax -16.4947 5.89457 -4.24677
lowerneck -14.1131 11.2104 12.5197
upperneck 8.82959 12.1436 1.23102
head 5.62354 6.33935 -0.395889
rclavicle 1.37062e-013 3.85642e-014
rhumerus 6.2944 62.4238 -36.5143
rradius 103.167
rwrist 9.26803
rhand -50.3915 66.0906
rfingers 7.12502
rthumb -22.9648 397.438
lclavicle 1.37062e-013 3.85642e-014
lhumerus 41.3574 -54.1688 -13.4296
lradius 100.568
lwrist 1.33095
lhand -55.8993 -32.6816
lfingers 7.12502
lthumb -28.24 -364.79
rfemur -440.157 -55.7224 389.49
rtibia 131.461
rfoot -23.5439 16.4473
rtoes -18.0859
lfemur -92.2367 48.4377 -23.2904
ltibia 135.712
lfoot -27.2033 -15.5009
ltoes -6.93724
1665
root 20.3716 9.15374 8.34382 -176.023 -4.07519 -167.569
lowerback 25.1501 9.54696 4.55267
upperback -2.14895 14.4296 3.23068
thorax -16.2166 6.02697 -4.17738
lowerneck -14.3399 11.2628 12.7254
upperneck 9.20577 12.1356 1.17505
head 5.79725 6.3516 -0.416802
rclavicle -5.52621e-014 5.32743e-014
rhumerus 7.11924 62.9275 -37.6058
rradius 102.947
rwrist 7.61256
rhand -50.2247 64.3326
rfingers 7.12502
rthumb -22.8048 395.661
lclavicle -5.52621e-014 5.32743e-014
lhumerus 41.6589 -54.2679 -13.4576
lradius 99.7537
lwrist 1.53478
lhand -55.6935 -32.7898
lfingers 7.12502
lthumb -28.0433 -364.866
rfemur -438.68 -54.1979 389.311
rtibia 129.343
rfoot -22.1268 16.5024
rtoes -16.4731
lfemur -90.2778 46.429 -22.1952
ltibia 133.86
lfoot -26.316 -14.9733
ltoes -7.84627
1666
root 20.3207 9.36912 8.33725 -175.914 -4.17403 -167.291
lowerback 24.6699 9.69776 4.785
upperback -2.21334 14.6967 3.39455
thorax -15.9934 6.15683 -4.12589
lowerneck -14.5714 11.2965 12.9386
upperneck 9.5979 12.1001 1.11338
head 5.97694 6.35113 -0.443062
rclavicle -1.58034e-014 -4.37326e-014
rhumerus 7.98507 63.4234 -38.7475
rradius 102.698
rwrist 5.69265
rhand -49.9618 62.2566
rfingers 7.12502
rthumb -22.5525 393.554
lclavicle -1.58034e-014 -4.37326e-014
lhumerus 42.0134 -54.3848 -13.5059
lradius 98.9018
lwrist 1.62928
lhand -55.5078 -32.9291
lfingers 7.12502
lthumb -27.8658 -364.976
rfemur -437.125 -53.0026 389.022
rtibia 127.197
rfoot -20.5658 16.9046
rtoes -14.6695
lfemur -88.3976 44.7206 -21.1161
ltibia 132.007
lfoot -25.3962 -14.7274
ltoes -8.83429
1667
root 20.2679 9.58375 8.33114 -175.871 -4.27069 -166.992
lowerback 24.2954 9.85289 5.05043
upperback -2.28312 14.9835 3.57057
thorax -15.8312 6.28523 -4.10023
lowerneck -14.8045 11.3064 13.1527
upperneck 9.9979 12.0286 1.06447
head 6.15753 6.33446 -0.469752
rclavicle -5.94366e-014 -4.49253e-014
rhumerus 8.88825 63.9114 -39.9524
rradius 102.408
rwrist 3.50101
rhand -49.5794 59.8788
rfingers 7.12502
rthumb -22.1853 391.132
lclavicle -5.94366e-014 -4.49253e-014
lhumerus 42.4405 -54.5142 -13.6017
lradius 98.0172
lwrist 1.57379
lhand -55.3246 -32.9938
lfingers 7.12502
lthumb -27.6906 -365.012
rfemur -435.484 -52.0819 388.597
rtibia 125.018
rfoot -18.804 17.6964
rtoes -12.6697
lfemur -86.5638 43.279 -20.0125
ltibia 130.152
lfoot -24.4407 -14.7745
ltoes -9.99345
1668
root 20.2137 9.79691 8.32578 -175.862 -4.3678 -166.672
lowerback 24.0007 10.0133 5.34932
upperback -2.37071 15.2913 3.74697
thorax -15.7261 6.41329 -4.111
lowerneck -15.0392 11.2884 13.3741
upperneck 10.3987 11.9135 1.03005
head 6.33651 6.2981 -0.498613
rclavicle -1.08735e-013 1.59028e-014
rhumerus 9.80437 64.372 -41.2414
rradius 102.086
rwrist 1.02625
rhand -49.0404 57.2309
rfingers 7.12502
rthumb -21.6679 388.423
lclavicle -1.08735e-013 1.59028e-014
lhumerus 42.975 -54.6408 -13.7876
lradius 97.1035
lwrist 1.37588
lhand -55.1142 -32.9591
lfingers 7.12502
lthumb -27.4894 -364.945
rfemur -433.79 -51.3717 388.04
rtibia 122.801
rfoot -16.7463 18.9228
rtoes -10.3535
lfemur -84.8052 42.0505 -18.8594
ltibia 128.303
lfoot -23.4065 -15.1885
ltoes -11.2375
1669
root 20.1583 10.0079 8.32116 -175.871 -4.46522 -166.341
lowerback 23.771 10.184 5.67311
upperback -2.47878 15.624 3.91575
thorax -15.6719 6.5439 -4.16174
lowerneck -15.285 11.2367 13.6002
upperneck 10.7981 11.7447 1.01478
head 6.51355 6.23743 -0.528967
rclavicle 3.51849e-014 -1.27222e-014
rhumerus 10.7125 64.7832 -42.6373
rradius 101.718
rwrist -1.71188
rhand -48.3835 54.4492
rfingers 7.12502
rthumb -21.0368 385.57
lclavicle 3.51849e-014 -1.27222e-014
lhumerus 43.6336 -54.7724 -14.0804
lradius 96.1674
lwrist 1.04092
lhand -54.8773 -32.765
lfingers 7.12502
lthumb -27.2628 -364.716
rfemur -432.037 -50.8158 387.319
rtibia 120.534
rfoot -14.3382 20.5689
rtoes -7.72962
lfemur -83.1116 40.9905 -17.6504
ltibia 126.46
lfoot -22.3379 -15.9112
ltoes -12.8206
1670
root 20.1018 10.216 8.31721 -175.883 -4.56163 -166.004
lowerback 23.5867 10.364 6.01983
upperback -2.61123 15.9791 4.06713
thorax -15.659 6.67682 -4.258
lowerneck -15.5409 11.1529 13.844
upperneck 11.1909 11.5221 1.00974
head 6.68804 6.15235 -0.565895
rclavicle -1.82882e-014 7.55382e-014
rhumerus 11.6174 65.125 -44.1403
rradius 101.302
rwrist -4.67017
rhand -47.5877 51.4895
rfingers 7.12502
rthumb -20.2722 382.527
lclavicle -1.82882e-014 7.55382e-014
lhumerus 44.4462 -54.8982 -14.5251
lradius 95.2179
lwrist 0.633089
lhand -54.6209 -32.5108
lfingers 7.12502
lthumb -27.0175 -364.423
rfemur -430.22 -50.3413 386.416
rtibia 118.21
rfoot -11.5483 22.6014
rtoes -4.59733
lfemur -81.4704 40.064 -16.386
ltibia 124.631
lfoot -21.3313 -16.8708
ltoes -14.9629
1671
root 20.0443 10.4205 8.3139 -175.882 -4.66419 -165.663
lowerback 23.4302 10.5461 6.40071
upperback -2.76896 16.3478 4.19129
thorax -15.6716 6.80832 -4.40951
lowerneck -15.8131 11.0396 14.0975
upperneck 11.5752 11.2481 1.0233
head 6.85924 6.04434 -0.60548
rclavicle 1.23246e-014 3.10104e-014
rhumerus 12.5322 65.3799 -45.7456
rradius 100.829
rwrist -7.79861
rhand -46.6894 48.3568
rfingers 7.12502
rthumb -19.4087 379.305
lclavicle 1.23246e-014 3.10104e-014
lhumerus 45.4166 -55.0108 -15.1365
lradius 94.2599
lwrist 0.209252
lhand -54.3769 -32.2414
lfingers 7.12502
lthumb -26.784 -364.118
rfemur -428.345 -49.8834 385.317
rtibia 115.797
rfoot -8.35322 24.9395
rtoes -0.860106
lfemur -79.8973 39.2234 -15.0664
ltibia 122.819
lfoot -20.4314 -18.053
ltoes -17.3689
1672
root 19.9886 10.6012 8.3102 -175.856 -4.77346 -165.326
lowerback 23.2694 10.7355 6.80091
upperback -2.94513 16.7299 4.2893
thorax -15.686 6.94224 -4.60012
lowerneck -16.1073 10.8974 14.3707
upperneck 11.9461 10.923 1.03663
head 7.02793 5.91266 -0.655176
rclavicle -6.95746e-015 6.52014e-014
rhumerus 13.4623 65.528 -47.4242
rradius 100.307
rwrist -11.0795
rhand -45.707 45.04
rfingers 7.12502
rthumb -18.4638 375.896
lclavicle -6.95746e-015 6.52014e-014
lhumerus 46.5545 -55.0894 -15.9218
lradius 93.2818
lwrist -0.217567
lhand -54.1821 -32.0279
lfingers 7.12502
lthumb -26.5976 -363.876
rfemur -426.548 -49.404 384.004
rtibia 113.413
rfoot -4.83053 27.4544
rtoes 3.36028
lfemur -78.563 38.4718 -13.7063
ltibia 121.191
lfoot -19.7859 -19.3349
ltoes -19.8394
1673
root 19.9299 10.7946 8.30772 -175.813 -4.89485 -164.97
lowerback 23.0986 10.9318 7.23886
upperback -3.13229 17.1283 4.37207
thorax -15.6869 7.0797 -4.82459
lowerneck -16.4409 10.7275 14.645
upperneck 12.3123 10.5481 1.05697
head 7.19821 5.7583 -0.709246
rclavicle 1.73937e-014 -6.20208e-014
rhumerus 14.4021 65.5546 -49.1593
rradius 99.7266
rwrist -14.4509
rhand -44.6981 41.5997
rfingers 7.12502
rthumb -17.4932 372.367
lclavicle 1.73937e-014 -6.20208e-014
lhumerus 47.8547 -55.1222 -16.8557
lradius 92.2791
lwrist -0.60841
lhand -54.0531 -31.9579
lfingers 7.12502
lthumb -26.4742 -363.787
rfemur -424.525 -48.7933 382.551
rtibia 110.736
rfoot -1.24892 29.8081
rtoes 7.61322
lfemur -77.1114 37.7569 -12.3049
ltibia 119.453
lfoot -19.4628 -20.3711
ltoes -22.1067
1674
root 19.8704 10.9813 8.30531 -175.758 -5.03205 -164.585
lowerback 22.9109 11.1276 7.72724
upperback -3.32694 17.5345 4.44336
thorax -15.663 7.21691 -5.07881
lowerneck -16.8075 10.5357 14.9204
upperneck 12.6718 10.1326 1.08021
head 7.36894 5.58555 -0.768509
rclavicle -3.44891e-014 3.73715e-014
rhumerus 15.3654 65.4486 -50.9315
rradius 99.1112
rwrist -17.9805
rhand -43.5418 37.9173
rfingers 7.12502
rthumb -16.38 368.589
lclavicle -3.44891e-014 3.73715e-014
lhumerus 49.2993 -55.0922 -17.9283
lradius 91.2672
lwrist -0.930849
lhand -53.9652 -31.864
lfingers 7.12502
lthumb -26.39 -363.681
rfemur -422.391 -48.0454 380.975
rtibia 107.88
rfoot 1.93962 31.7145
rtoes 11.2477
lfemur -75.7084 37.0829 -10.8423
ltibia 117.781
lfoot -19.2693 -21.0622
ltoes -23.1526
1675
root 19.81 11.1599 8.30274 -175.69 -5.18484 -164.168
lowerback 22.6841 11.3309 8.26084
upperback -3.51897 17.9536 4.5152
thorax -15.593 7.35976 -5.34121
lowerneck -17.2183 10.3208 15.1865
upperneck 13.0257 9.6779 1.09511
head 7.54217 5.39408 -0.834853
rclavicle -4.27387e-014 -1.11319e-014
rhumerus 16.3386 65.2049 -52.7125
rradius 98.4462
rwrist -21.6199
rhand -42.2959 34.0886
rfingers 7.12502
rthumb -15.1802 364.665
lclavicle -4.27387e-014 -1.11319e-014
lhumerus 50.8739 -54.9809 -19.0988
lradius 90.247
lwrist -1.18922
lhand -53.8948 -31.5889
lfingers 7.12502
lthumb -26.3227 -363.395
rfemur -420.148 -47.1395 379.314
rtibia 104.812
rfoot 4.1375 32.863
rtoes 13.6053
lfemur -74.3508 36.4416 -9.33776
ltibia 116.172
lfoot -19.2336 -21.0366
ltoes -22.9725
1676
root 19.7487 11.3296 8.29999 -175.606 -5.35475 -163.727
lowerback 22.4111 11.5432 8.83492
upperback -3.70897 18.3837 4.58286
thorax -15.4723 7.50893 -5.61055
lowerneck -17.6759 10.0838 15.4503
upperneck 13.3771 9.1855 1.08868
head 7.72026 5.18411 -0.913577
rclavicle 8.54774e-014 1.35174e-014
rhumerus 17.2893 64.7967 -54.5273
rradius 97.7337
rwrist -25.4146
rhand -40.8304 30.1269
rfingers 7.12502
rthumb -13.7681 360.602
lclavicle 8.54774e-014 1.35174e-014
lhumerus 52.5618 -54.7758 -20.3524
lradius 89.2322
lwrist -1.37418
lhand -53.7914 -31.0212
lfingers 7.12502
lthumb -26.2236 -362.813
rfemur -417.801 -46.0736 377.613
rtibia 101.524
rfoot 4.61309 32.9735
rtoes 13.7634
lfemur -73.0315 35.8057 -7.81399
ltibia 114.623
lfoot -19.3328 -20.1074
ltoes -21.3921
1677
root 19.6857 11.49 8.29674 -175.51 -5.53497 -163.271
lowerback 22.093 11.7807 9.41269
upperback -3.89771 18.8377 4.66269
thorax -15.3181 7.67276 -5.85476
lowerneck -18.1769 9.81866 15.699
upperneck 13.7312 8.65505 1.04687
head 7.90393 4.95432 -1.0083
rclavicle -6.90777e-014 -6.36111e-015
rhumerus 18.1693 64.2271 -56.3748
rradius 96.964
rwrist -29.3961
rhand -39.0892 26.1255
rfingers 7.12502
rthumb -12.0896 356.495
lclavicle -6.90777e-014 -6.36111e-015
lhumerus 54.3626 -54.4932 -21.6555
lradius 88.2423
lwrist -1.4702
lhand -53.6087 -30.025
lfingers 7.12502
lthumb -26.0487 -361.791
rfemur -415.341 -44.8455 375.892
rtibia 97.9965
rfoot 3.08005 31.7425
rtoes 11.3551
lfemur -71.7244 35.1502 -6.28608
ltibia 113.098
lfoot -19.4308 -18.2958
ltoes -18.018
